<svg id="Livello_4" data-name="Livello 4" xmlns="http://www.w3.org/2000/svg" xmlns:xlink="http://www.w3.org/1999/xlink" viewBox="0 0 899.2 612.45"><defs><style>.cls-1{fill:#e6db62;}.cls-2{fill:#51d37a;}.cls-3{fill:#d35151;}.cls-4{fill:#212121;}.cls-5{fill:#494949;}.cls-6{fill:#2d2d2d;}.cls-7,.cls-8{fill:#5292ef;}.cls-8{font-size:26.06px;font-family:OdibeeSans-Regular, Odibee Sans;letter-spacing:-0.05em;}.cls-9{letter-spacing:-0.03em;}.cls-10{letter-spacing:-0.04em;}.cls-11{letter-spacing:0em;}.cls-12{fill:#231f20;opacity:0.5;}.cls-13{fill:#e28f79;}.cls-14{fill:url(#Sfumatura_senza_nome_42);}.cls-15{fill:#e5a693;}.cls-16{fill:url(#Sfumatura_senza_nome_42-2);}</style><linearGradient id="Sfumatura_senza_nome_42" x1="548.95" y1="306.94" x2="620.08" y2="306.94" gradientTransform="matrix(-0.76, -0.65, 0.65, -0.76, 532.47, 1076.95)" gradientUnits="userSpaceOnUse"><stop offset="0.74" stop-color="#e28f79"/><stop offset="0.88" stop-color="#db9486"/><stop offset="1" stop-color="#d8968b"/></linearGradient><linearGradient id="Sfumatura_senza_nome_42-2" x1="582.73" y1="-5.71" x2="653.86" y2="-5.71" gradientTransform="translate(54.14 -167.59) rotate(18.44)" xlink:href="#Sfumatura_senza_nome_42"/></defs><title>tap-it-banner</title><path class="cls-1" d="M936.6,36c-19.35-17.79-69.27,3.92-96,25-10.3,8.12-57.08,47.62-48,104,4.87,30.24,26.56,70,53,71C901.12,238.1,972.66,69.15,936.6,36Z" transform="translate(-62.4 56.22)"/><path class="cls-2" d="M318.2,314.11c-21.7-22.67-62.4-34.07-94.86-16.94-38.11,20.11-47.28,70.27-35.19,106.2,15.35,45.65,67.34,75.34,103,63.2C338.91,450.25,359.83,357.59,318.2,314.11Z" transform="translate(-62.4 56.22)"/><path class="cls-3" d="M946.54,330.92c-34.17-36.23-122.08-20.28-164.44,25.61-24.54,26.57-43.18,73.33-22.8,100.94,29.22,39.59,135.12,35,179.1-19.59C962.69,407.73,971.8,357.71,946.54,330.92Z" transform="translate(-62.4 56.22)"/><path class="cls-4" d="M762,176.44V160l-8.14,4.62a28.75,28.75,0,0,0-4.64-2.55L590.71,93c-13.61-5.93-32.59-3-42.19,6.49L298.15,347.37,283,350.51v17.93a1.08,1.08,0,0,1,0,.18v.61h0c.17,6.26,4.61,12.24,12.78,15.8l158.45,69.08c13.61,5.93,32.59,3,42.19-6.49L756.45,190.18A17.69,17.69,0,0,0,762,176.44Z" transform="translate(-62.4 56.22)"/><path class="cls-5" d="M496.44,430.09c-9.61,9.51-28.59,12.43-42.2,6.5l-158.49-69.1c-13.61-5.93-16.89-18.56-7.29-28.07L548.58,81.92c9.61-9.5,28.6-12.43,42.2-6.49l158.5,69.1c13.61,5.93,16.88,18.56,7.28,28.07Z" transform="translate(-62.4 56.22)"/><path class="cls-6" d="M496.44,429.07c-9.6,9.51-28.59,12.43-42.2,6.5l-158.49-69.1c-13.61-5.94-16.89-18.57-7.29-28.07L548.58,80.9c9.61-9.51,28.6-12.43,42.2-6.5l158.5,69.1c13.61,5.94,16.88,18.57,7.28,28.07Z" transform="translate(-62.4 56.22)"/><path class="cls-7" d="M746.87,167.35,626,287,486.76,424.84c-5.86,5.81-17.38,7.58-25.69,4L302.58,359.7c-8.31-3.62-10.29-11.29-4.43-17.09L558.26,85.12A16.73,16.73,0,0,1,560.87,83,25.94,25.94,0,0,1,584,81.16l24.38,10.63,109.74,47.85,24.38,10.63C750.75,153.89,752.73,161.55,746.87,167.35Z" transform="translate(-62.4 56.22)"/><path class="cls-3" d="M746.87,167.35l-124.23,123L435.48,206.67,558.26,85.12a20.34,20.34,0,0,1,7.83-4.54,26.15,26.15,0,0,1,17.86.58l24.38,10.63,109.74,47.85,24.38,10.63C750.75,153.89,752.73,161.55,746.87,167.35Z" transform="translate(-62.4 56.22)"/><path class="cls-6" d="M509.85,340.45c-6.84,8.19-10.26,12.28-13.65,13.1a16.71,16.71,0,0,1-11-1.36l-88.07-39.91a6.83,6.83,0,0,1-3.64-2.95,7.57,7.57,0,0,1-.64-2.39c0-.19,0-.38,0-.38h0c0-.13,0-1.86,0-6.49,6.84-3.84,11.74-6.77,12.18-7.11l.69-.54a5.67,5.67,0,0,1,.79-.6,14.45,14.45,0,0,1,12.92-.86L433,297.09a282.15,282.15,0,0,0,61,27.64q9.15,2.88,17.82,5c0,3.09,0,5,0,6.21,0,.11,0,.19,0,.3A7.38,7.38,0,0,1,509.85,340.45Z" transform="translate(-62.4 56.22)"/><path class="cls-4" d="M509.85,333.73c-7,8.23-10.54,12.35-13.65,13.09a16.68,16.68,0,0,1-11-1.35l-88.07-39.91c-4.61-2.09-5.66-6.39-2.34-9.59l10.24-9.73a8.82,8.82,0,0,1,1.48-1.14,14.49,14.49,0,0,1,12.92-.87L433,290.37,494,318l13.54,6.13c.93.52,4.12,2.41,4.28,5.31C511.89,331.3,510.71,332.73,509.85,333.73Z" transform="translate(-62.4 56.22)"/><text class="cls-8" transform="matrix(1.1, 0.49, -0.87, 0.49, 351.98, 361.39)">R<tspan class="cls-9" x="11.49" y="0">E</tspan><tspan class="cls-10" x="23.64" y="0">AD</tspan><tspan class="cls-11" x="45.79" y="0">Y</tspan></text><rect class="cls-12" x="324.87" y="361.71" width="91.28" height="26.68" rx="13.34" transform="translate(-217.71 469.31) rotate(-49.49)"/><path class="cls-13" d="M334.87,307H350.5a8.14,8.14,0,0,1,8.14,8.14V456.91a16,16,0,0,1-16,16h0a16,16,0,0,1-16-16V315.18a8.14,8.14,0,0,1,8.14-8.14Z" transform="translate(287.48 965.26) rotate(-139.49)"/><path class="cls-13" d="M332.95,384.69h15.63a8.14,8.14,0,0,1,8.14,8.14V482a16,16,0,0,1-16,16h0a16,16,0,0,1-16-16V392.83a8.14,8.14,0,0,1,8.14-8.14Z" transform="translate(250.74 1054.42) rotate(-139.49)"/><path class="cls-13" d="M350.64,413.1h15.63a8.14,8.14,0,0,1,8.14,8.14v89.15a16,16,0,0,1-16,16h0a16,16,0,0,1-16-16V421.24A8.14,8.14,0,0,1,350.64,413.1Z" transform="translate(263.42 1115.92) rotate(-139.49)"/><path class="cls-13" d="M372.07,441.49H387.7a8.14,8.14,0,0,1,8.14,8.14v80.45a16,16,0,0,1-16,16h0a16,16,0,0,1-16-16V449.63a8.14,8.14,0,0,1,8.14-8.14Z" transform="translate(285.52 1172.14) rotate(-139.49)"/><path class="cls-14" d="M296.65,420.52h0a26.73,26.73,0,0,1,20.07,32l-8.56,37.3a26.22,26.22,0,0,1-31.91,19.6h0l-21.39-24,1.32-8q4.23-18.41,8.45-36.83A26.72,26.72,0,0,1,296.65,420.52Z" transform="translate(-62.4 56.22)"/><path class="cls-13" d="M344.94,454.59c26.73,22.85,67.81,25.27,45,52l-23.35,27.32A63.67,63.67,0,0,1,276.78,541h0a63.43,63.43,0,0,1-12.54-14.47,64.08,64.08,0,0,1-9.58-29,62.88,62.88,0,0,1,.2-12.07c12.58-9.9,18.82-19.8,22.19-26.88,6.47-13.6,5.66-23.83,16-34.71C297.55,419.17,300.27,416.43,344.94,454.59Z" transform="translate(-62.4 56.22)"/><path class="cls-15" d="M381.66,327.09h7.21a7.47,7.47,0,0,1,7.47,7.47v7.53a11.08,11.08,0,0,1-11.08,11.08h0a11.08,11.08,0,0,1-11.08-11.08v-7.53a7.47,7.47,0,0,1,7.47-7.47Z" transform="translate(394.8 905.21) rotate(-139.49)"/><path class="cls-13" d="M611.34,28.85H627A8.14,8.14,0,0,1,635.11,37V178.72a16,16,0,0,1-16,16h0a16,16,0,0,1-16-16V37a8.14,8.14,0,0,1,8.14-8.14Z" transform="translate(4.72 -133.85) rotate(18.44)"/><path class="cls-13" d="M593.81,6.83h15.63A8.14,8.14,0,0,1,617.58,15v89.15a16,16,0,0,1-16,16h0a16,16,0,0,1-16-16V15a8.14,8.14,0,0,1,8.14-8.14Z" transform="translate(-11.46 -130.78) rotate(18.44)"/><path class="cls-13" d="M566.74-12.85h15.63a8.14,8.14,0,0,1,8.14,8.14V84.44a16,16,0,0,1-16,16h0a16,16,0,0,1-16-16V-4.71a8.14,8.14,0,0,1,8.14-8.14Z" transform="translate(-19.07 -123.23) rotate(18.44)"/><path class="cls-13" d="M537.85-22.71h15.63a8.14,8.14,0,0,1,8.14,8.14V65.87a16,16,0,0,1-16,16h0a16,16,0,0,1-16-16V-14.58a8.14,8.14,0,0,1,8.14-8.14Z" transform="translate(-25.05 -114.83) rotate(18.44)"/><path class="cls-16" d="M650.33,66.13h0A26.71,26.71,0,0,1,619.7,44L613.61,6.23a26.22,26.22,0,0,1,22.2-30.16h0L664.65-9.74l1.79,7.93q3,18.66,6,37.31A26.71,26.71,0,0,1,650.33,66.13Z" transform="translate(-62.4 56.22)"/><path class="cls-13" d="M592.78,52.71c-33.37-11.12-72.34,2.08-61.22-31.29l11.37-34.09a63.68,63.68,0,0,1,80.55-40.27h0a63.65,63.65,0,0,1,17,8.71A63.92,63.92,0,0,1,660.29-21a63.06,63.06,0,0,1,4.36,11.26c-7.94,13.9-10,25.42-10.46,33.24-.88,15,3.71,24.22-1.81,38.2C650,67.73,648.51,71.29,592.78,52.71Z" transform="translate(-62.4 56.22)"/><path class="cls-15" d="M594.82,160.9H602a7.47,7.47,0,0,1,7.47,7.47v7.53A11.08,11.08,0,0,1,598.43,187h0a11.08,11.08,0,0,1-11.08-11.08v-7.53A7.47,7.47,0,0,1,594.82,160.9Z" transform="translate(23.32 -124.1) rotate(18.44)"/><rect class="cls-12" x="515.74" y="251.55" width="36.59" height="18" rx="9"/><path class="cls-7" d="M191.6,56c-31.84-6.37-35.92-19-62-18-7.54.27-39,2.48-56,25-21.94,29-9,77.43,16,104,43.29,46,117.76,21.23,127,18,12.72-4.44,60.83-21.24,73-65,4.59-16.51,6.85-46.89-10-61C260.8,43.26,239.46,65.57,191.6,56Z" transform="translate(-62.4 56.22)"/></svg>